<?xml version="1.0" standalone="no"?>
<!DOCTYPE svg PUBLIC "-//W3C//DTD SVG 20010904//EN"
 "http://www.w3.org/TR/2001/REC-SVG-20010904/DTD/svg10.dtd">
<svg version="1.0" xmlns="http://www.w3.org/2000/svg"
 width="500.000000pt" height="500.000000pt" viewBox="0 0 500.000000 500.000000"
 preserveAspectRatio="xMidYMid meet">
<metadata>
Created by potrace 1.14, written by Peter Selinger 2001-2017
</metadata>
<g transform="translate(0.000000,500.000000) scale(0.100000,-0.100000)"
fill="#000000" stroke="none">
<path d="M2250 4755 c-540 -67 -1055 -320 -1416 -697 -218 -227 -391 -502
-498 -789 -182 -491 -200 -1037 -49 -1504 112 -349 303 -664 558 -921 139
-140 233 -216 398 -325 468 -307 1030 -430 1617 -353 967 126 1781 865 1975
1794 133 633 17 1261 -326 1765 -343 506 -871 866 -1455 994 -226 50 -568 65
-804 36z m17 -489 l23 -27 0 -784 0 -783 -547 -540 c-302 -297 -572 -560 -600
-585 -55 -48 -118 -73 -159 -63 -78 20 -239 373 -293 641 -41 203 -50 364 -30
543 46 420 230 807 526 1108 234 238 498 393 833 490 143 42 211 42 247 0z
m756 8 c744 -192 1299 -826 1387 -1584 44 -376 -58 -838 -251 -1137 -46 -70
-71 -81 -140 -63 -50 14 -53 16 -751 704 l-488 479 0 726 c0 399 3 757 7 795
6 62 9 70 37 87 41 25 78 24 199 -7z m410 -2952 c253 -255 254 -256 227 -326
-21 -56 -313 -216 -527 -290 -111 -38 -245 -63 -286 -52 -16 4 -34 20 -44 39
-17 29 -18 81 -21 651 l-3 619 208 -201 c114 -110 315 -308 446 -440z m-1145
9 c-3 -611 -3 -620 -24 -648 -14 -19 -32 -29 -54 -31 -143 -14 -536 139 -747
292 -57 41 -74 95 -47 145 18 33 851 861 867 861 4 0 6 -279 5 -619z"/>
</g>
</svg>
